<svg viewBox="0 0 56 55" xmlns="http://www.w3.org/2000/svg">
  <path d="M49.6359379 24.4783257c-1.7564521 0-3.4151062.8016088-4.7608067 2.1992358-.736745-5.5055479-3.2749292-14.5936904-11.7990031-20.2406223 9.2347394 2.0001307 16.5943651 9.1990447 18.6859384 18.430517-.6819781-.2568262-1.3952515-.3891305-2.1261286-.3891305m-13.6063101 0c-2.6679295 0-5.2093736.9760689-7.1875012 2.6584098V6.2858269c10.4448267 4.8835876 13.318132 14.8407882 14.0926922 20.6193759-1.9350965-1.5390111-4.361791-2.4268771-6.905191-2.4268771m-16.3290066 0c-2.544052 0-4.9713984.8885146-6.9064949 2.4275257.7745602-5.7779392 3.6472135-15.7357884 14.0920402-20.6200245v20.8489629c-1.9774756-1.6810437-4.5182677-2.6564641-7.1855453-2.6564641m-13.6082661 0c-.730877 0-1.4441505.1323043-2.1254766.389779 2.0915733-9.2321208 9.450547-16.4316833 18.6859384-18.4311655-8.5240739 5.6469319-11.06291 14.7344259-11.799003 20.2399737-1.3457005-1.3969784-3.0043547-2.1985872-4.7614588-2.1985872M29.4941132 2.6889641V1.877627c0-.8956486-.7295731-1.621377-1.6299667-1.621377-.8997416 0-1.6299667.7257284-1.6299667 1.621377v.8113371C12.3305637 3.4964099 1.0251146 14.5509584.1605803 28.529174c-.0365113.4980871.1584327 1.0039567.5633165 1.3502828l.0013039-.0012971c.149957.1284131.3253414.2308841.5196334.298982.686542.2399638 1.4493664-.0019457 1.8705498-.5908298l-1.3294008-.9378045 1.3294008.9371559c.000652 0 .000652-.0006485.000652-.0006485.4961619-.6958951 1.5419485-1.8639351 2.9763192-1.8639351 1.5347767 0 3.0278262 1.3781705 3.9034443 3.6001056.1740805.4954928.5848321.8904602 1.1168532 1.0324929.7158814.1939167 1.4643621-.1186848 1.8340386-.7542646 1.3913395-2.3918554 3.9797267-3.8783339 6.75393-3.8783339 2.6405461 0 5.1017959 1.3561198 6.5335586 3.5495186v17.8883285c0 3.1325004 2.5629597 5.6806565 5.7120554 5.6806565 3.1497476 0 5.7127073-2.5481561 5.7127073-5.6806565 0-.8956487-.7295731-1.621377-1.6299667-1.621377s-1.6299667.7257283-1.6299667 1.621377c0 1.3444458-1.1005535 2.4379025-2.4527739 2.4379025s-2.452122-1.0934567-2.452122-2.4379025V31.2764353c1.4324148-2.1959931 3.8930125-3.5553556 6.5355146-3.5553556 2.7500798 0 5.3169514 1.4598879 6.7167668 3.8154245.2249354.4312862.6409029.7523189 1.1481486.8463588.1004059.0188079.2001599.0272391.2992619.0272391.6630704 0 1.2739819-.4040472 1.5197809-1.0376813.8730102-2.252417 2.3758395-3.6513411 3.9223519-3.6513411 1.3991635 0 2.4279985 1.1090219 2.937852 1.8088082.2914381.4468516.7973798.7399965 1.3678681.7399965h.001956c.6096075 0 1.1670561-.3398406 1.4474104-.8781378.146045-.2801739.2034199-.5914783.1747324-.8950001-.878226-13.9620019-12.1778073-25.0016338-26.0716436-25.8077824" fill="currentColor" fill-rule="evenodd"/>
</svg>
