<svg viewBox="0 0 32 29" xmlns="http://www.w3.org/2000/svg">
  <path d="M27.151327 19.57663c-.309774.01341-.594397.17564-.762908.43637-.169349.25989-.202045.58559-.088028.87399l2.258125 4.90483-7.246371-5.74152c-.166834-.12617-.370136-.19408-.578469-.19408-.013833 0-.027666.00042-.041499.00084l-18.748261.81447L5.423113 2.07878c.016348-.08928.124916-.16976.215878-.15929l20.824881 2.41616c.184858.02138.430079.2448.469062.42631l3.134631 14.68808-2.916238.12659zm1.658278-15.21499c-.210429-.98549-1.123823-1.81589-2.124406-1.932L5.859899.0139c-.078387-.00922-.15845-.01383-.237675-.01383-1.004776 0-1.901403.74195-2.085423 1.72618L.03413 20.44601c-.103537.55374.031019 1.10454.369298 1.5124.336602.40535.848421.638 1.404673.638.029762 0 .059524-.00084.089705-.0021l18.532803-.80525 9.085734 6.86744c.171026.1291.374747.19366.57805.19366.20456 0 .40912-.06498.580565-.19534.34247-.25989.469901-.71596.312289-1.11586l-2.408191-6.10368 1.627677-.07085c.566313-.02431 1.081486-.28462 1.413057-.71344.331991-.4284.454392-.99262.336183-1.54678L28.809605 4.36164zm-3.898377 6.30405c-.200788-.32947-.444332-.63841-.728955-.91297-.07168-.06791-.145875-.13372-.222166-.19785-.077129-.06288-.156773-.12324-.238513-.18109-.082579-.05701-.167672-.11108-.254862-.16138-.043595-.02516-.088028-.04905-.13288-.0721l-.072938-.03605c-.021797-.01006-.039403-.01761-.059523-.02599l-.003354-.00126c-.25528-.10647-.560025-.03982-.745721.18402-.228035.27456-.190308.68243.084674.91046l.048206.04024.034372.03186c.02557.02263.05156.04569.07713.06958.05072.04653.101022.0939.149647.14336.049883.04821.098088.09851.145036.15007.039823.0415.077968.08509.115694.12869-.038145.03269-.073775.06874-.103956.11108l-.002096.00252c-.734404 1.02028-1.825112 1.74588-3.019357 2.2292-1.198436.48038-2.506279.70967-3.814541.7235l-.25067-.00042c-.080063-.00084-.156773-.00209-.24019-.00503-.163481-.00545-.326961-.01425-.489603-.02683-.326541-.02347-.650568-.06329-.972079-.11611-.321931-.05156-.640927-.11821-.954893-.2012-.156773-.0415-.312709-.08677-.466548-.13666-.155097-.04778-.308097-.09934-.459841-.15551-.303067-.11151-.59817-.24229-.884889-.38565-.287558-.14252-.564217-.30307-.827882-.4808-.530682-.35043-1.002679-.77548-1.393774-1.26047l-.008803-.01174c-.039822-.04946-.089286-.08677-.140006-.12156.038564-.04192.074195-.08594.113597-.12743.103538-.10815.211267-.21379.32235-.31649.055332-.05197.111921-.1027.169349-.15342.060362-.05239.106891-.09473.176894-.15342.230549-.19282.300552-.52774.150486-.80147-.170606-.31061-.560863-.42421-.871476-.25318l-.012995.0067c-.069584.03857-.161384.09558-.237256.14504-.078806.05198-.155935.10605-.232645.16222-.151743.11276-.298456.23349-.438882.36259-.28127.25864-.53697.54913-.759135.86855-.221328.32025-.411635.66817-.549127 1.0492-.135814.3802-.228034.79267-.201625 1.24748.017186.30098.246478.5571.556671.59734.350435.04527.671108-.20163.716379-.55248l.005869-.04486c.029762-.22761.106053-.48708.217135-.73943.032696-.07378.073357-.14629.111083-.21881.380197.59062.863093 1.10538 1.397967 1.53923.306001.24438.627932.46487.96118.66398.334087.19827.681168.37014 1.034537.52439 1.418088.61033 2.954803.88615 4.476847.86855 1.522882-.01719 3.054986-.32445 4.458821-.97334.701708-.32277 1.367367-.73734 1.964699-1.24748.295941-.2578.576792-.53697.827462-.84465.125754-.15384.244801-.31313.355046-.47912.031857-.04779.060781-.09683.090962-.14546.059104.1136.116951.22845.171025.34583.124078.27037.231807.55038.336183.8371l.005869.0176c.097669.26786.366363.44769.663562.42044.354207-.03269.614938-.34582.582661-.69961-.034373-.37475-.120305-.74488-.243125-1.1037-.12282-.35924-.285881-.70674-.487087-1.0358z" fill="#FFF" fill-rule="evenodd"/>
</svg>
