<svg viewBox="0 0 160 38" xmlns="http://www.w3.org/2000/svg">
  <path d="M35.270932 25.4310413c-.402412.0174251-.772153.2281607-.991056.5668622-.219993.3376125-.262467.7607172-.114353 1.1353581l2.933417 6.3716188-9.413398-7.4585131c-.216726-.1639055-.480826-.2521203-.75146-.2521203-.01797 0-.03594.0005445-.053909.001089L2.525244 26.85337 7.044895 2.7004642c.021237-.1159862.162272-.2205372.280436-.2069238l27.052561 3.138707c.240141.0277714.558695.3180092.609336.5537934l4.072043 19.0805505-3.788339.16445zm2.154185-19.7650326c-.273357-1.2802048-1.459901-2.3589311-2.759709-2.5097676L7.612302.0180786C7.510473.0060988 7.406467.0001089 7.30355.0001089c-1.305254 0-2.470017.9638292-2.709068 2.2424003L.044337 26.5604095c-.134501.7193324.040295 1.434853.479736 1.9646868.437263.5265666 1.102142.8287842 1.824741.8287842.038662 0 .077324-.0010891.116531-.0027227l24.075037-1.0460541 11.802823 8.9211375c.222171.1677172.486816.2515758.750916.2515758.265734 0 .531467-.0844032.754183-.2537539.444886-.3376125.610425-.930068.405679-1.4495556l-3.128361-7.9289924 2.114435-.0920267c.735668-.0315831 1.404903-.3697401 1.835631-.9268007.431273-.556516.590278-1.2894618.436718-2.0093388L37.425117 5.6660087zm-5.064187 8.1892808c-.260833-.4280055-.577208-.8293287-.946948-1.186-.093116-.0882149-.189499-.1737071-.288605-.2570211-.100194-.0816804-.203656-.1600937-.309841-.2352397-.107273-.0740569-.217814-.1443021-.331078-.2096464-.056632-.0326722-.114352-.0637108-.172618-.0936603l-.094749-.0468301c-.028316-.0130688-.051187-.0228705-.077324-.0337612l-.004357-.0016336c-.331622-.1383122-.7275-.051731-.96873.2390514-.296227.3566712-.247219.886505.109997 1.1827327l.062621.0522755.044652.0413848c.033217.0294049.066978.0593544.100195.090393.065889.0604435.131233.1219761.194399.1862314.0648.0626217.127422.127966.18841.194944.051731.0539091.101284.1105408.150292.1671726-.049553.0424738-.095838.089304-.135045.1443021l-.002723.0032672c-.954027 1.3254013-2.370911 2.2679936-3.922294 2.8958439-1.556829.6240385-3.255783.9218998-4.95528.9398695l-.325633-.0005445c-.104006-.0010891-.203657-.0027227-.312019-.0065344-.212369-.007079-.424739-.0185143-.636019-.0348503-.424193-.0304941-.84512-.082225-1.262779-.1508366-.418204-.066978-.832596-.1535592-1.240454-.2613774-.203656-.0539091-.406224-.112719-.606069-.1775188-.201478-.0620771-.400234-.1290551-.597356-.202023-.3937-.1448466-.777053-.3147419-1.149516-.5009733-.373552-.1851424-.732946-.3936997-1.075459-.6245831-.689383-.4552323-1.302531-1.0073921-1.810583-1.6374205l-.011435-.0152471c-.051731-.0642552-.115987-.112719-.181875-.1579155.050097-.0544536.096382-.1116299.147569-.165539.1345-.1404904.274446-.2777135.418748-.4111249.071879-.0675225.145391-.1334114.219993-.1993002.078413-.0680671.138857-.1230652.229794-.1993003.299495-.2504867.390433-.6855712.195489-1.0411533-.221627-.4035014-.72859-.5510707-1.132091-.3288999l-.016881.0087125c-.090393.0500974-.209646.1241543-.308207.1884096-.102373.0675225-.202568.1377677-.302218.2107355-.197122.1464803-.38771.3033067-.570129.4710239-.365384.3359788-.697551.7133425-.986156 1.1282791-.287515.4160257-.534734.8679908-.713342 1.3629743-.17643.4938943-.296228 1.029718-.261922 1.6205399.022326.390977.320187.7236887.723144.7759641.455232.05881.871803-.2619219.930613-.7176988l.007623-.0582653c.038662-.2956832.137768-.6327512.28207-.960562.042474-.0958384.095294-.1900431.144302-.2842479.493894.7672516 1.1212 1.4359421 1.816028 1.9995371.397512.3174647.815716.6038907 1.248622.8625455.433995.2575656.884871.4808255 1.343916.6812148 1.842166.7928448 3.838436 1.1511497 5.815647 1.1282791 1.9783-.0223259 3.96858-.421471 5.792232-1.2644131.911554-.419293 1.776277-.9578393 2.552241-1.62054.384443-.3348898.749282-.6975509 1.074915-1.0972405.163361-.1998448.318009-.4067686.461222-.622405.041385-.0620771.078958-.1257878.118165-.188954.076779.1475693.151925.2967722.22217.4492424.161183.3512259.301129.7149761.436718 1.0874389l.007624.0228705c.126877.3479587.475925.5815647.862001.5461699.460133-.0424739.798835-.4492424.756905-.908831-.044652-.4868155-.156282-.967641-.315831-1.433764-.159549-.4666676-.371374-.9180881-.632751-1.3455491zm125.028792-2.8969329c-1.352083 0-2.55333.8451203-3.079352 1.6706372-.30004-.9948677-1.126101-1.6706372-2.478185-1.6706372-1.370597 0-2.571844.9197217-2.947574 1.464258v-.3566713c0-.5439917-.450876-.9948677-.995413-.9948677-.525477 0-.976353.450876-.976353.9948677v7.3038649c0 .5445362.450876.9948677.995412.9948677.525478 0 .976354-.4503315.976354-.9948677v-5.4448181c.412758-.601168 1.220305-1.2208503 2.08394-1.2208503 1.070558 0 1.502375.6572553 1.502375 1.6336088v5.0320596c0 .5445362.450332.9948677.975809.9948677.544537 0 .995413-.4503315.995413-.9948677v-5.4638768c.394244-.5821093 1.220305-1.2017916 2.102454-1.2017916 1.052044 0 1.483861.6572553 1.483861 1.6336088v5.0320596c0 .5445362.450332.9948677.976354.9948677.543992 0 .994868-.4503315.994868-.9948677v-5.6702561c0-1.839988-.938781-2.7411955-2.609963-2.7411955zm-17.14309 7.7727106c-1.671182 0-2.609962-1.4081708-2.609962-3.0227208 0-1.5960358.93878-3.0042066 2.609962-3.0042066 1.689696 0 2.628476 1.4081708 2.628476 3.0042066 0 1.61455-.93878 3.0227208-2.628476 3.0227208zm0-7.7727106c-2.872429 0-4.65633 2.1590863-4.65633 4.7499898 0 2.6094177 1.783901 4.7690485 4.65633 4.7690485 2.910546 0 4.674844-2.1596308 4.674844-4.7690485 0-2.5909035-1.764298-4.7499898-4.674844-4.7499898zm-9.201029 1.7457832c.638741 0 1.164218.187865 1.633609.5821093.150292.1312332.356671.2069238.582109.2069238.488449 0 .882149-.3942443.882149-.8826933 0-.263011-.131234-.526022-.319099-.6757695-.675769-.5821093-1.595491-.9763535-2.872428-.9763535-2.75971 0-4.693903 2.0087943-4.693903 4.7499898 0 2.7602543 1.934193 4.7690485 4.693903 4.7690485 1.276937 0 2.196659-.3942442 2.872428-.9763535.187865-.150292.319099-.413303.319099-.6757695 0-.488449-.3937-.8821487-.901208-.8821487-.206379 0-.412758.0746015-.56305.2058347-.469391.3947888-.994868.5821093-1.633609.5821093-1.652123 0-2.740651-1.2578788-2.740651-3.0227208s1.088528-3.0042066 2.740651-3.0042066zm-7.717168 5.1257198c-.713343 0-1.313966.6011681-1.313966 1.3145106s.600623 1.313966 1.313966 1.313966c.713342 0 1.31451-.6006235 1.31451-1.313966s-.601168-1.3145106-1.31451-1.3145106zm-9.895858-2.8539145c.093661-1.1075867.863635-2.4030385 2.553876-2.4030385 1.783356 0 2.515757 1.3330248 2.55333 2.4030385h-5.107206zm2.553876-4.0175885c-2.685109 0-4.600243 2.1215133-4.600243 4.7499898 0 2.8724287 2.027853 4.7690485 4.74999 4.7690485 1.14516 0 2.234232-.2815252 3.13544-.8826932.206924-.150292.357216-.3757301.357216-.6567108 0-.4323618-.357216-.789033-.789033-.789033-.168807 0-.319099.037573-.431818.112719-.638196.3947888-1.408171.6006235-2.065426.6006235-1.70821 0-2.740651-1.126101-2.890943-2.4966988h5.839063c.750915 0 1.164218-.338157 1.164218-.9197217 0-2.403583-1.746328-4.4875233-4.468464-4.4875233zm-7.585935-3.9805601c-.657255 0-1.220306.5445363-1.220306 1.2208503 0 .675225.563051 1.2197612 1.220306 1.2197612.675769 0 1.220306-.5445362 1.220306-1.2197612 0-.676314-.544537-1.2208503-1.220306-1.2208503zm.018514 4.0932791c-.544536 0-.994868.450876-.994868.9948677v8.7120357c0 1.0700137-.56305 1.4827722-1.276937 1.4827722h-.056087c-.413303 0-.732402.413303-.732402.8451203 0 .4503314.375186.8260615.807003.8260615h.225438c1.99028 0 3.004207-1.2203058 3.004207-3.153954v-8.7120357c0-.5439917-.450876-.9948677-.976354-.9948677zm-6.478348-.112719c-1.427229 0-2.590903.7509155-3.191527 1.464258v-.3566713c0-.5439917-.450876-.9948677-.995412-.9948677-.525478 0-.976354.450876-.976354.9948677v7.3038649c0 .5445362.450876.9948677.995413.9948677.525477 0 .976353-.4503315.976353-.9948677v-5.4448181c.450332-.6196822 1.313966-1.2208503 2.327893-1.2208503 1.107586 0 1.820929.4693903 1.820929 1.8775611v4.7881073c0 .5445362.450876.9948677.976353.9948677.544537 0 .995413-.4503315.995413-.9948677v-5.5014498c0-1.8585023-.976354-2.9100018-2.929061-2.9100018zm-9.688933 7.2281743c-.450876.6196823-1.295452.9387805-2.159631.9387805-1.107587 0-1.933648-.6381965-1.933648-1.61455 0-.9948677.826061-1.6330642 1.933648-1.6330642.864179 0 1.708755.3190982 2.159631.9382359v1.3705978zm-1.802415-7.2281743c-1.220851 0-2.346952.3376125-3.342364 1.0700137-.18732.1312333-.338157.3757301-.338157.6387411 0 .4318172.357216.7884885.789033.7884885.168806 0 .337612-.0566318.450331-.1317778.67577-.4693903 1.352084-.6757695 2.121514-.6757695 1.258423 0 2.122058.6381965 2.122058 1.689696v1.351539c-.657256-.7694297-1.708755-1.163674-2.929061-1.163674-1.483317 0-3.154499.8636345-3.154499 2.9475748 0 2.0093388 1.671182 3.0042065 3.154499 3.0042065 1.201792 0 2.252747-.4318172 2.929061-1.2017915v.0942048c0 .5445362.450331.9948677.976353.9948677.543992 0 .994868-.4503315.994868-.9948677v-5.1257198c0-2.4406115-1.764842-3.2857318-3.773636-3.2857318zm-8.844358 1.7457832c.638196 0 1.164218.187865 1.633064.5821093.150292.1312332.357216.2069238.582109.2069238.488449 0 .882693-.3942443.882693-.8826933 0-.263011-.131777-.526022-.319098-.6757695-.676314-.5821093-1.596036-.9763535-2.872429-.9763535-2.760254 0-4.693902 2.0087943-4.693902 4.7499898 0 2.7602543 1.933648 4.7690485 4.693902 4.7690485 1.276393 0 2.196115-.3942442 2.872429-.9763535.187321-.150292.319098-.413303.319098-.6757695 0-.488449-.394244-.8821487-.901207-.8821487-.206379 0-.413303.0746015-.563595.2058347-.468846.3947888-.994868.5821093-1.633064.5821093-1.652123 0-2.741196-1.2578788-2.741196-3.0227208s1.089073-3.0042066 2.741196-3.0042066zm-7.7738-1.6330642c-.526022 0-.976354.450876-.976354.9948677v5.4823911c-.469934.6196823-1.333569 1.1827328-2.328437 1.1827328-1.107586 0-1.820929-.4318173-1.820929-1.8399881v-4.8251358c0-.5439917-.450876-.9948677-.976353-.9948677-.544537 0-.995413.450876-.995413.9948677v5.5384783c0 1.8590468.95784 2.8729733 2.910547 2.8729733 1.426685 0 2.55333-.6948282 3.210585-1.4081707v.300584c0 .5445362.450332.9948677.994868.9948677.526022 0 .976354-.4503315.976354-.9948677v-7.3038649c0-.5439917-.450332-.9948677-.994868-.9948677zm-15.34122 1.5579182c-.300584-.9948677-1.126646-1.6706372-2.478729-1.6706372-1.370598 0-2.571845.9197217-2.947575 1.464258v-.3566713c0-.5439917-.450331-.9948677-.994868-.9948677-.526022 0-.976353.450876-.976353.9948677v7.3038649c0 .5445362.450331.9948677.994868.9948677.526022 0 .976353-.4503315.976353-.9948677v-5.4448181c.413303-.601168 1.220306-1.2208503 2.08394-1.2208503 1.070559 0 1.502376.6572553 1.502376 1.6336088v5.0320596c0 .5445362.450331.9948677.976353.9948677.544537 0 .994868-.4503315.994868-.9948677v-5.4638768c.394244-.5821093 1.220306-1.2017916 2.102999-1.2017916 1.050955 0 1.483317.6572553 1.483317 1.6336088v5.0320596c0 .5445362.450331.9948677.976354.9948677.543991 0 .994867-.4503315.994867-.9948677v-5.6702561c0-1.839988-.93878-2.7411955-2.609962-2.7411955-1.351539 0-2.553331.8451203-3.078808 1.6706372z" fill="#333" fill-rule="evenodd"/>
</svg>
