<svg viewBox="0 0 39 50" xmlns="http://www.w3.org/2000/svg">
  <path d="M8.4130435 23.3339314h22.173913c.9006522 0 1.6304348-.7273462 1.6304348-1.6249916 0-.8976453-.7297826-1.6249916-1.6304348-1.6249916H8.4130435c-.9006522 0-1.6304348.7273463-1.6304348 1.6249916 0 .8976454.7297826 1.6249916 1.6304348 1.6249916zm0-6.5038664h22.173913c.9006522 0 1.6304348-.7273462 1.6304348-1.6249916 0-.8976453-.7297826-1.6249916-1.6304348-1.6249916H8.4130435c-.9006522 0-1.6304348.7273463-1.6304348 1.6249916 0 .8976454.7297826 1.6249916 1.6304348 1.6249916zm0-6.5045164h22.173913c.9006522 0 1.6304348-.7273462 1.6304348-1.6249916 0-.8976453-.7297826-1.6249916-1.6304348-1.6249916H8.4130435c-.9006522 0-1.6304348.7273463-1.6304348 1.6249916 0 .8976454.7297826 1.6249916 1.6304348 1.6249916zm26.5760869 34.2288232l-14.6171739-9.2195524c-.2660869-.1683491-.5686956-.2521987-.8719565-.2521987-.3032609 0-.6058696.0838496-.8719565.2521987L4.0108696 44.5543718V3.6312332h30.9782608v40.9231386zM36.6195652.38125H2.3804348C1.4797826.38125.75 1.1092462.75 2.0062416v45.499765c0 .5927969.3234783 1.1381441.843913 1.4241426.5197827.2846985 1.155.2664986 1.6584783-.0506997L19.5 38.6309524l16.2476087 10.2484971c.2654348.1676991.5686956.2515487.8719565.2515487.27 0 .5413044-.0662997.7865218-.200849.5204347-.2859985.843913-.8313457.843913-1.4241426V2.0062416c0-.8969954-.7297826-1.6249916-1.6304348-1.6249916z" fill="currentColor" fill-rule="evenodd"/>
</svg>
