<svg viewBox="0 0 57 57" xmlns="http://www.w3.org/2000/svg">
  <path d="M41.6673077 34.2433864c.7981653-1.823002 1.227447-3.8018162 1.227447-5.8513951 0-2.0489297-.4292817-4.0290423-1.227447-5.8507459l8.4758788-4.8931505c1.6268543 3.301919 2.4925617 6.9550645 2.4925617 10.7438964 0 3.7881827-.8650579 7.4413282-2.4919123 10.7425979l-8.4765282-4.8912028zm.1734012 14.3788638l-4.8993969-8.4820234c.5844986-.4317295 1.1495139-.8959199 1.6729648-1.419189.5234509-.5232691.9871532-1.0880881 1.4196821-1.6723836L48.5202288 41.9457c-.8760985 1.3010313-1.8833843 2.528052-3.0173116 3.6615853-1.1339272 1.1335333-2.3607248 2.1398201-3.6622083 3.0149649zm-19.4111976-6.8485928c1.8229861.7965896 3.8031374 1.2257222 5.852779 1.2257222 2.0489923 0 4.029793-.4291326 5.8521297-1.2257222l4.8942013 8.471636c-3.3024169 1.6269384-6.9574813 2.492345-10.7469804 2.492345-3.7894991 0-7.4439141-.8654066-10.746331-2.4916958l4.8942014-8.4722852zM14.7219234 8.1604339l4.9000464 8.4839711c-.5844986.4317295-1.1501633.8952706-1.6729648 1.4185397-.5241004.5239183-.9878026 1.0887374-1.4203315 1.6723837l-8.4862699-4.8970458c.8760984-1.3016806 1.8833843-2.528052 3.0173115-3.6615853 1.1339273-1.1335334 2.3607248-2.1404693 3.6622083-3.0162634zm19.4111977 6.8505405c-1.8216873-.797888-3.802488-1.2270206-5.8514802-1.2270206-2.0502911 0-4.0304424.4291326-5.8534285 1.2270206L17.534011 6.5373907c3.3024169-1.6262892 6.9574814-2.4916958 10.7469805-2.4916958 3.789499 0 7.4445635.8647574 10.7469804 2.4916958l-4.8948508 8.4735837zm-5.8508308 24.7423189c-3.0361453 0-5.8910961-1.1815754-8.0375048-3.3278877-2.1464087-2.145663-3.3290441-4.9989729-3.3290441-8.0334143 0-3.0350907 1.1826354-5.8877513 3.3290441-8.0340636 2.1464087-2.1450138 5.00071-3.3278876 8.0368554-3.3278876 3.0354959 0 5.8897973 1.1828738 8.0368554 3.3278876 2.1457592 2.1463123 3.3290441 4.9989729 3.3290441 8.0340636 0 3.0350907-1.1832849 5.8884005-3.3290441 8.0340635-2.1470581 2.1456631-5.00071 3.3272385-8.036206 3.3272385zm17.219328-28.576596c1.1339273 1.1335333 2.1412131 2.3599047 3.0173116 3.6609361l-8.4856204 4.897695c-.432529-.5836463-.8962312-1.1491146-1.4190327-1.6723837-.5241004-.5232691-1.0897651-.9868102-1.6736142-1.4191889l4.8993969-8.4833219c1.3014835.8757941 2.5276316 1.88273 3.6615588 3.0162634zM3.9268842 28.3913421c0-3.7881827.8650579-7.4413282 2.4919122-10.7419488l8.4765283 4.8925013c-.7975159 1.8210544-1.2267976 3.801167-1.2267976 5.8500967 0 2.0495789.4292817 4.0290423 1.227447 5.8513951l-8.4758788 4.8925013c-1.6275038-3.301919-2.4932111-6.9557137-2.4932111-10.7445456zm7.1328309 17.215294c-1.1332778-1.1328841-2.1405636-2.3592555-3.0153632-3.6596377l8.484971-4.8983442c.4325289.5842955.8962311 1.1491145 1.4196821 1.6717344.5234509.5239183 1.0891157.9874595 1.6742637 1.4198382l-4.9000464 8.4826726c-1.3014835-.8751448-2.5295799-1.88273-3.6635072-3.0162633zm42.1702733-4.6581339c1.943133-3.8479106 2.9783449-8.1223571 2.9783449-12.5571601-.0006494-4.4354523-1.0358613-8.7092495-2.9789944-12.556511.5948897-.4966512.7676415-1.3601102.3669352-2.0541234-.4007062-.6940133-1.2365392-.9751243-1.9632657-.708296-1.0384592-1.5743519-2.2405779-3.0558657-3.6057068-4.4205203-1.3651289-1.3646547-2.8471575-2.5657066-4.4220564-3.603805.2675704-.7271234-.0149372-1.5620168-.7085422-1.9625838-.6929555-.3999178-1.557364-.2278753-2.0548372.3668077C36.9932674 1.5098523 32.7179851.475 28.2809915.475c-4.4369937 0-8.712276 1.0348523-12.5615239 2.9773103-.4968237-.594683-1.3625311-.7667255-2.0541877-.3668077-.6942544.400567-.9761126 1.2354604-.7091916 1.9625838-1.574899 1.0380984-3.057577 2.2391503-4.4220565 3.603805-1.3748705 1.3743929-2.5743915 2.8578543-3.6018101 4.4231171-.7280254-.2694251-1.5651573.0123352-1.9671624.7069976-.4026546.6979086-.2247072 1.565912.3766769 2.0606156-3.9557565 7.8704608-3.9557565 17.230226.0006494 25.1000376-.6013841.496002-.778682 1.3640054-.3760274 2.0606156.300692.5206722.8468735.8115215 1.4073427.8115215.1870395 0 .3727802-.044796.5546242-.1116653 1.0287175 1.5665612 2.2295373 3.0519703 3.6057067 4.4289601 1.3651289 1.3640055 2.847807 2.5663558 4.4233554 3.603805-.2669211.7271233.0142877 1.5620167.7091916 1.9625838.255231.1473723.5344914.2174877.8105047.2174877.4701966 0 .9215594-.2148909 1.2345908-.5881908 3.8518456 1.9444057 8.1303752 2.9805564 12.5699666 2.9805564 4.4402408 0 8.718121-1.0361507 12.5699666-2.9812056.3143303.3732999.7650436.58884 1.2352403.58884.2760132 0 .5552736-.0701154.8111541-.2174877.693605-.4005671.9754632-1.2361097.7085422-1.963233 1.5748989-1.0374492 3.057577-2.2397996 4.4220564-3.6031558 1.3664278-1.3666023 2.5711443-2.8520114 3.6102529-4.4296093.1805451.0662201.3643374.1103669.5500781.1103669.5604692 0 1.1066506-.2908493 1.4073426-.8115216.4000569-.693364.2279545-1.5561738-.3662857-2.052825z" fill="currentColor" fill-rule="evenodd"/>
</svg>
