<svg viewBox="0 0 56 48" xmlns="http://www.w3.org/2000/svg">
  <path d="M37.0162946 20.7394235h-2.7381971c-.5039587 0-.9127324.4093579-.9127324.9133838v2.7434157c0 .5040259.4087737.9133837.9127324.9133837h2.7381971c.5039586 0 .9127323-.4093578.9127323-.9133837v-2.7434157c0-.5040259-.4087737-.9133838-.9127323-.9133838zm-9.1273237 0h-2.7381971c-.5039586 0-.9127323.4093579-.9127323.9133838v2.7434157c0 .5040259.4087737.9133837.9127323.9133837h2.7381971c.5039587 0 .9127324-.4093578.9127324-.9133837v-2.7434157c0-.5040259-.4087737-.9133838-.9127324-.9133838zm-9.1273236 0h-2.7381971c-.5039587 0-.9127324.4093579-.9127324.9133838v2.7434157c0 .5040259.4087737.9133837.9127324.9133837h2.7381971c.5039586 0 .9127324-.4093578.9127324-.9133837v-2.7434157c0-.5040259-.4087738-.9133838-.9127324-.9133838zm21.0254419 18.3982519c-.1688554-.0568008-.3435785-.0848748-.5183015-.0848748-.2425261 0-.4850521.0541893-.7073676.161915-3.5609602 1.7183889-7.6363102 2.6265496-11.7866346 2.6265496-12.8799576 0-23.3587771-8.6161011-23.3587771-19.2071743 0-10.5904203 10.4788195-19.2071743 23.3587771-19.2071743 12.8799576 0 23.358777 8.616754 23.358777 19.2071743 0 4.2992367-1.6937704 8.3647411-4.8968091 11.7571228-.5443797.576496-.5958838 1.4611529-.1225669 2.0970612l4.4078454 5.9190402-9.7349427-3.2696397zm15.4623382 5.4998891L48.521286 35.603618c3.1508825-3.7690954 4.872035-8.3255681 4.872035-12.9695271C53.393321 10.2436713 41.4521739.1625 26.7747855.1625S.15625 10.2436713.15625 22.6340909c0 12.3910725 11.9411471 22.4715909 26.6185355 22.4715909 4.4039336 0 8.7426721-.9199126 12.5930988-2.6657226l14.0567304 4.7209993c.1701594.0574537.3448824.0848748.5176496.0848748.513086 0 1.0079173-.2422197 1.3208541-.6750813.4179011-.5778018.4126854-1.3612617-.013691-1.9331875z" fill="currentColor" fill-rule="evenodd"/>
</svg>
