<svg viewBox="0 0 90 56" xmlns="http://www.w3.org/2000/svg">
  <path d="M89.5 17.3884755c0-.483103-.21303-.9414314-.581462-1.2511128-.368432-.3103333-.854064-.4368137-1.326744-.3527107-4.55522.8351617-7.6917497-1.6031716-11.3262129-4.4248579-3.3851725-2.6280539-7.2223058-5.6075147-12.5506502-5.6075147-3.579425 0-7.908017.614799-10.5427276 5.0957255-1.9392869-.382701-4.4011128.2047157-5.6767038 1.5816569-.6099527.6584804-.5736923 1.6892304.080291 2.3040294.6559257.6128431 1.6789886.5763333 2.2882937-.0808432.6403856-.6930343 2.622408-.8436372 3.0672461-.4831029.3923899.3188088.9103964.4342059 1.3999126.3142451.4895161-.1212647.8955037-.4641961 1.0981738-.9290441 1.4225754-3.2695834 3.7458346-4.5428628 8.2855142-4.5428628 4.2249906 0 7.3090718 2.394652 10.5738079 4.9294755 3.3955327 2.6365294 6.8959617 5.3643334 11.6939972 5.2717549-.411168 1.247201-1.282066 2.2733873-2.591975 3.0700834-.021368.0084754-.044031.0110833-.065399.0208627-.130796.0573726-.245405.1343039-.352892.2190588-4.9430767 2.6345736-15.0804641 2.0275981-26.8269093-5.2717549-.4046926-.2523088-.8961513-.3109853-1.3487595-.1642941-.4513131.1473431-.8152127.4863628-.9971625.9277402-.3995125.9707696-.8657184 1.8437451-1.1881774 2.2238382-.5808148.6839069-.5005238 1.712701.1793597 2.2975098.677941.5848089 1.7016514.5059216 2.2818187-.1799411.3347617-.3937843.6481557-.8964461.9220516-1.4004118 7.0915091 4.1125686 14.2620143 6.2796863 20.241752 6.2796863 2.5324043-.000652 4.8465984-.3950883 6.8545207-1.1898285.682474 2.0438971 1.033423 4.1784167 1.033423 6.3690049 0 11.0272648-8.9097116 19.9982451-19.8603692 19.9982451-4.5079517 0-8.7562526-1.4825588-12.2871145-4.2866421-.7012513-.5574265-1.7204291-.4368137-2.2734011.2712157-.5536194.7060735-.4338304 1.7309559.2687159 2.2883823 4.1071441 3.2624118 9.0495738 4.9868481 14.2917997 4.9868481 12.7364851 0 23.0979102-10.4333285 23.0979102-23.2580491 0-2.7434509-.470091-5.4132303-1.391495-7.9558774C88.256137 22.7221667 89.5 20.2597108 89.5 17.3884755M54.5954262 46.1686324c3.3132992 3.3817205 5.9849177 1.1937401 7.2682789.1408235.9168715-.7510588 1.5235866-1.2119951 2.4003127-1.2119951.876726 0 1.4821461.4602843 2.3990176 1.2119951.7705347.63175 2.0402982 1.6735833 3.6500034 1.6735833 1.0709785 0 2.2934738-.4622402 3.618923-1.8144068.8786685-.8970981.8696034-2.3418432-.0213678-3.2272059-.8903237-.8847108-2.3252017-.8749314-3.2045178.0221666-.1948999.1981961-.3399417.316201-.4351254.3846569-.2052601-.1343039-.5089414-.3833529-.7459294-.5769853-1.0858712-.8918823-2.7285993-2.2375294-5.2610036-2.2375294-2.5330519 0-4.1751325 1.3456471-5.2622987 2.2375294-.2363405.1936324-.5406693.4426814-.7452819.5769853-.0951837-.0684559-.2402255-.1864608-.4351254-.3846569-.8780211-.89775-2.3135466-.9068774-3.2045178-.0221666-.8909712.8853627-.9006838 2.3301078-.0213678 3.2272059m-24.9271209 6.2444803c-10.9513051 0-19.8610171-8.9709803-19.8610171-19.9982451 0-.0273823.0019425-.0541127.0019425-.0814951 1.5715022.3214167 3.1980427.4980981 4.8647286.4980981 3.8591486 0 7.9073695-.8684118 11.8273837-2.6234902 2.8833538-1.2915343 5.4151106-2.9696814 7.516922-4.9053529 2.943572 2.8510245 7.7616801 5.22025 13.2266488 5.22025.7167915 0 1.4458857-.0462893 2.1821024-.1323481.0666934.6663039.1016588 1.3410833.1016588 2.0243382 0 11.0272648-8.909712 19.9982451-19.8603697 19.9982451m0-39.9951862c2.6534884 0 5.1852452.530696 7.5020294 1.4858186-1.0068752 5.3904118-5.4779189 10.4111618-11.9847282 13.3260784-4.257366 1.9056814-9.8473038 3.0303138-15.0992423 1.862652 1.5766823-9.4501716 9.7547101-16.674549 19.5819411-16.674549m0-8.9018726c4.0048379 0 7.3103669 3.0642157 7.7305997 6.9857598-2.4184429-.8671078-5.0201306-1.3436912-7.7305997-1.3436912-2.711764 0-5.3134518.4765834-7.7325422 1.3443432.4202328-3.9215441 3.7264094-6.9864118 7.7325422-6.9864118m10.4831568 11.9256667c4.1984428 2.6391372 7.3505124 6.8097304 8.6791991 11.7313823-5.2215056.5385196-9.8861542-1.5940441-12.572018-4.2247058 1.8913713-2.295554 3.2310656-4.8453726 3.8928189-7.5066765m.5095889-3.4762549c.0116552-.2066716.0226628-.4126912.0226628-.6174069 0-6.1160441-4.9411346-11.0918088-11.0154085-11.0918088-6.0749213 0-11.017351 4.9757647-11.017351 11.0918088 0 .2047157.0142452.4107353.0252529.6167549C12.6796343 15.2448284 8.284349 21.1235588 6.9770301 28.087152c-1.2581083-.5365638-2.4773662-1.2224265-3.6260456-2.1045295-.7090214-.5456911-1.7262567-.4087794-2.2688685.3064216s-.4059876 1.7381275.3049763 2.2844706c1.5721498 1.2087353 3.3301344 2.1462549 5.207908 2.8418971-.0142452.331196-.0252528.664348-.0252528.9994558 0 12.8247206 10.3620727 23.2580491 23.0985578 23.2580491 12.7364852 0 23.0979104-10.4333285 23.0979104-23.2580491 0-1.428446-.1353292-2.8236421-.3813823-4.1810245-1.3001963-7.064647-5.7051942-12.9759755-11.7237824-16.2683774zM34.0810733 44.512c-1.3086139.8905784-2.8412657 1.3606422-4.4315457 1.3606422-1.6116478 0-3.1617822-.4844069-4.4826988-1.3997598-.7349218-.5111373-1.744387-.3240246-2.2513858.4179068-.5069989.7412794-.3211641 1.7563824.4150527 2.2662157 1.8635284 1.2928382 4.0488684 1.9754412 6.3190319 1.9754412 2.2384356 0 4.3978753-.6636961 6.243921-1.9200245.7407493-.5039657.9356493-1.5171128.4351255-2.2629559-.5018188-.7458432-1.5080465-.9414314-2.2475008-.4374657m-10.260414-7.5334069v-2.8862304c0-.9003578-.7245616-1.6299019-1.6187703-1.6299019-.8935613 0-1.6187704.7295441-1.6187704 1.6299019v2.8862304c0 .9003579.7252091 1.629902 1.6187704 1.629902.8942087 0 1.6187703-.7295441 1.6187703-1.629902m13.3134149-4.5161323c-.8942087 0-1.6187704.7295441-1.6187704 1.6299019v2.8862304c0 .9003579.7245617 1.629902 1.6187704 1.629902.8942087 0 1.6187703-.7295441 1.6187703-1.629902v-2.8862304c0-.9003578-.7245616-1.6299019-1.6187703-1.6299019m21.2661098 4.5161323v-2.8862304c0-.9003578-.7245616-1.6299019-1.6187703-1.6299019-.8942088 0-1.6187704.7295441-1.6187704 1.6299019v2.8862304c0 .9003579.7245616 1.629902 1.6187704 1.629902.8942087 0 1.6187703-.7295441 1.6187703-1.629902m13.3127674 1.629902c.8942087 0 1.6187703-.7295441 1.6187703-1.629902v-2.8862304c0-.9003578-.7245616-1.6299019-1.6187703-1.6299019s-1.6187704.7295441-1.6187704 1.6299019v2.8862304c0 .9003579.7245617 1.629902 1.6187704 1.629902" fill="currentColor" fill-rule="evenodd"/>
</svg>
