<svg viewBox="0 0 46 56" xmlns="http://www.w3.org/2000/svg">
  <path d="M30.9867077 32.5197091c-.5384191 4.8293714-6.3758784 9.3809904-7.8509635 9.9214993-1.4750851-.5398569-7.3118894-5.0914758-7.8516186-9.9221513-.3104753-2.7814362 1.5687517-4.6591991 2.9868508-4.8945715.172268-.028688.3451909-.04238.5154938-.04238 1.5543414 0 2.7012659 1.1912058 2.884014 1.5224223.2718297.5424648.8377593.8652053 1.4462646.8762893.6104704.002608 1.1875352-.3383885 1.4803252-.8704213.1853682-.3364325 1.3322927-1.5282903 2.8872891-1.5282903.1703029 0 .3438809.013692.5154938.04238 1.4180991.2353724 3.2979811 2.1131353 2.9868508 4.8952235zm-2.4477766-8.1102404c-.349776-.0580281-.704792-.0873681-1.054568-.0873681-1.827481 0-3.3169764.7634931-4.3479639 1.6150064-1.0322976-.8515133-2.5217929-1.6150064-4.349929-1.6150064-.350431 0-.704792.02934-1.0539129.0873681-3.1532237.5222528-6.1970604 4.0502302-5.702527 8.469493.7198572 6.4600259 8.5446203 12.8515917 11.1057139 12.8515917 2.5610935 0 10.3852016-6.3915658 11.1057139-12.8509397.4945334-4.4199148-2.5499584-7.9478922-5.702527-8.470145zm13.6130965 24.4930696c0 1.9357909-1.5818519 3.5103734-3.5259249 3.5103734H4.1188057V14.5538216h34.507297c1.944073 0 3.5259249 1.5745824 3.5259249 3.5097214v30.8389953zM24.9527451 3.8212331c.704137-.3409965 1.3224675-.4016326 1.6951688-.1708243.3740114.2327644.588855.8136973.588855 1.5921865v6.0512213H9.5711184l15.3816267-7.4725835zm13.6733576 7.4725835h-8.1142781V5.2425953c0-1.927967-.7755332-3.5162414-2.1294412-4.3573227-1.352598-.8410813-3.1250581-.8384733-4.8660778.00652l-21.75292 10.5669802.0026201.005868c-.5436593.2647124-.9222557.8156533-.9222557 1.4591783v41.1190951c0 .9004133.7336125 1.6300025 1.6375279 1.6300025h36.1448248c3.7505937 0 6.8009806-3.0370207 6.8009806-6.7703784V18.063543c0-3.7320538-3.0503869-6.7697264-6.8009806-6.7697264z" fill="currentColor" fill-rule="evenodd"/>
</svg>
